<svg width="74" height="40" viewBox="0 0 74 40" fill="none" xmlns="http://www.w3.org/2000/svg">
<path d="M7.09375 31.9727L5.92188 33.1504C5.86328 32.9863 5.7832 32.8398 5.68164 32.7109C5.58008 32.5781 5.46484 32.4668 5.33594 32.377C5.21094 32.2871 5.07422 32.2188 4.92578 32.1719C4.77734 32.125 4.625 32.1016 4.46875 32.1016C4.25 32.1016 4.04297 32.1465 3.84766 32.2363C3.65625 32.3262 3.48828 32.4531 3.34375 32.6172C3.20312 32.7773 3.0918 32.9688 3.00977 33.1914C2.92773 33.4141 2.88672 33.6602 2.88672 33.9297C2.88672 34.1484 2.92773 34.3535 3.00977 34.5449C3.0918 34.7363 3.20312 34.9043 3.34375 35.0488C3.48828 35.1934 3.65625 35.3066 3.84766 35.3887C4.04297 35.4707 4.25 35.5117 4.46875 35.5117C4.625 35.5117 4.77539 35.4902 4.91992 35.4473C5.06445 35.4043 5.19922 35.3438 5.32422 35.2656C5.45312 35.1836 5.56641 35.0859 5.66406 34.9727C5.76562 34.8555 5.84766 34.7266 5.91016 34.5859L7.08203 35.7637C6.93359 35.9746 6.76172 36.1641 6.56641 36.332C6.375 36.5 6.16602 36.6426 5.93945 36.7598C5.7168 36.877 5.48047 36.9648 5.23047 37.0234C4.98438 37.0859 4.73047 37.1172 4.46875 37.1172C4.02734 37.1172 3.61133 37.0352 3.2207 36.8711C2.83398 36.7031 2.49414 36.4746 2.20117 36.1855C1.91211 35.8965 1.68359 35.5586 1.51562 35.1719C1.34766 34.7852 1.26367 34.3711 1.26367 33.9297C1.26367 33.4492 1.34766 33 1.51562 32.582C1.68359 32.1641 1.91211 31.8008 2.20117 31.4922C2.49414 31.1797 2.83398 30.9336 3.2207 30.7539C3.61133 30.5742 4.02734 30.4844 4.46875 30.4844C4.73047 30.4844 4.98633 30.5176 5.23633 30.584C5.49023 30.6504 5.73047 30.748 5.95703 30.877C6.1875 31.002 6.39844 31.1562 6.58984 31.3398C6.78516 31.5234 6.95312 31.7344 7.09375 31.9727ZM17.2696 33.8066C17.2696 34.2754 17.1856 34.7129 17.0177 35.1191C16.8497 35.5215 16.6212 35.8711 16.3321 36.168C16.043 36.4609 15.7032 36.6934 15.3126 36.8652C14.9259 37.0332 14.5098 37.1172 14.0645 37.1172C13.6231 37.1172 13.2071 37.0332 12.8165 36.8652C12.4298 36.6934 12.0899 36.4609 11.797 36.168C11.5079 35.8711 11.2794 35.5215 11.1114 35.1191C10.9434 34.7129 10.8595 34.2754 10.8595 33.8066C10.8595 33.3301 10.9434 32.8887 11.1114 32.4824C11.2794 32.0762 11.5079 31.7266 11.797 31.4336C12.0899 31.1367 12.4298 30.9043 12.8165 30.7363C13.2071 30.5684 13.6231 30.4844 14.0645 30.4844C14.5098 30.4844 14.9259 30.5645 15.3126 30.7246C15.7032 30.8809 16.043 31.1055 16.3321 31.3984C16.6212 31.6875 16.8497 32.0371 17.0177 32.4473C17.1856 32.8535 17.2696 33.3066 17.2696 33.8066ZM15.6583 33.8066C15.6583 33.5488 15.6153 33.3164 15.5294 33.1094C15.4473 32.8984 15.3341 32.7188 15.1895 32.5703C15.045 32.418 14.8751 32.3027 14.6798 32.2246C14.4884 32.1426 14.2833 32.1016 14.0645 32.1016C13.8458 32.1016 13.6388 32.1426 13.4434 32.2246C13.252 32.3027 13.0841 32.418 12.9395 32.5703C12.7989 32.7188 12.6876 32.8984 12.6055 33.1094C12.5235 33.3164 12.4825 33.5488 12.4825 33.8066C12.4825 34.0488 12.5235 34.2734 12.6055 34.4805C12.6876 34.6875 12.7989 34.8672 12.9395 35.0195C13.0841 35.1719 13.252 35.293 13.4434 35.3828C13.6388 35.4688 13.8458 35.5117 14.0645 35.5117C14.2833 35.5117 14.4884 35.4707 14.6798 35.3887C14.8751 35.3066 15.045 35.1914 15.1895 35.043C15.3341 34.8945 15.4473 34.7148 15.5294 34.5039C15.6153 34.293 15.6583 34.0605 15.6583 33.8066ZM29.5548 37H27.9611V33.0156C27.9611 32.9062 27.9396 32.8027 27.8966 32.7051C27.8576 32.6074 27.8009 32.5215 27.7267 32.4473C27.6525 32.373 27.5666 32.3164 27.4689 32.2773C27.3713 32.2344 27.2677 32.2129 27.1584 32.2129C27.049 32.2129 26.9455 32.2344 26.8478 32.2773C26.7541 32.3164 26.6701 32.373 26.5959 32.4473C26.5255 32.5215 26.4689 32.6074 26.4259 32.7051C26.3869 32.8027 26.3673 32.9062 26.3673 33.0156V37H24.7677V33.0156C24.7677 32.9062 24.7463 32.8027 24.7033 32.7051C24.6642 32.6074 24.6076 32.5215 24.5334 32.4473C24.4591 32.373 24.3732 32.3164 24.2755 32.2773C24.1779 32.2344 24.0744 32.2129 23.965 32.2129C23.8556 32.2129 23.7521 32.2344 23.6545 32.2773C23.5607 32.3164 23.4767 32.373 23.4025 32.4473C23.3322 32.5215 23.2755 32.6074 23.2326 32.7051C23.1935 32.8027 23.174 32.9062 23.174 33.0156V37H21.5744V30.7246H21.9611L22.3947 31.2051C22.6173 31.0176 22.8615 30.873 23.1271 30.7715C23.3966 30.666 23.6759 30.6133 23.965 30.6133C24.258 30.6133 24.5431 30.668 24.8205 30.7773C25.1017 30.8867 25.3478 31.0762 25.5588 31.3457C25.6564 31.2129 25.7677 31.0996 25.8927 31.0059C26.0177 30.9121 26.1486 30.8359 26.2853 30.7773C26.4259 30.7188 26.5705 30.6777 26.7189 30.6543C26.8673 30.627 27.0138 30.6133 27.1584 30.6133C27.4904 30.6133 27.8009 30.6758 28.09 30.8008C28.383 30.9258 28.6369 31.0977 28.8517 31.3164C29.0705 31.5312 29.2423 31.7852 29.3673 32.0781C29.4923 32.3711 29.5548 32.6836 29.5548 33.0156V37ZM35.758 39.3906H34.1467V30.7246H34.5334L35.1721 31.4805C35.3166 31.3438 35.4748 31.2148 35.6467 31.0938C35.8186 30.9727 35.9963 30.8691 36.1799 30.7832C36.3674 30.6934 36.5608 30.623 36.76 30.5723C36.9592 30.5215 37.1604 30.4961 37.3635 30.4961C37.8049 30.4961 38.219 30.5762 38.6057 30.7363C38.9963 30.8926 39.3362 31.1152 39.6252 31.4043C39.9182 31.6934 40.1487 32.043 40.3166 32.4531C40.4846 32.8594 40.5686 33.3105 40.5686 33.8066C40.5686 34.3223 40.4846 34.7871 40.3166 35.2012C40.1487 35.6113 39.9182 35.9609 39.6252 36.25C39.3362 36.5352 38.9963 36.7539 38.6057 36.9062C38.219 37.0586 37.8049 37.1348 37.3635 37.1348C37.2229 37.1348 37.0823 37.1191 36.9416 37.0879C36.8049 37.0566 36.6682 37.0156 36.5315 36.9648C36.3987 36.9102 36.2659 36.8496 36.133 36.7832C36.0041 36.7168 35.8791 36.6484 35.758 36.5781V39.3906ZM38.9631 33.8066C38.9631 33.541 38.9202 33.3027 38.8342 33.0918C38.7522 32.8809 38.6389 32.7031 38.4944 32.5586C38.3498 32.4102 38.1799 32.2969 37.9846 32.2188C37.7893 32.1406 37.5823 32.1016 37.3635 32.1016C37.1448 32.1016 36.9377 32.1406 36.7424 32.2188C36.551 32.2969 36.383 32.4102 36.2385 32.5586C36.094 32.7031 35.9788 32.8809 35.8928 33.0918C35.8108 33.3027 35.7698 33.541 35.7698 33.8066C35.7698 34.0605 35.8108 34.293 35.8928 34.5039C35.9788 34.7148 36.094 34.8945 36.2385 35.043C36.383 35.1914 36.551 35.3066 36.7424 35.3887C36.9377 35.4707 37.1448 35.5117 37.3635 35.5117C37.5823 35.5117 37.7893 35.4707 37.9846 35.3887C38.1799 35.3066 38.3498 35.1914 38.4944 35.043C38.6389 34.8945 38.7522 34.7148 38.8342 34.5039C38.9202 34.293 38.9631 34.0605 38.9631 33.8066ZM50.9554 37H50.5687L49.9476 36.1387C49.7952 36.2754 49.6331 36.4043 49.4613 36.5254C49.2933 36.6426 49.1155 36.7461 48.928 36.8359C48.7405 36.9219 48.5472 36.9902 48.348 37.041C48.1527 37.0918 47.9534 37.1172 47.7503 37.1172C47.3089 37.1172 46.8929 37.043 46.5023 36.8945C46.1155 36.7461 45.7757 36.5312 45.4827 36.25C45.1937 35.9648 44.9652 35.6172 44.7972 35.207C44.6292 34.7969 44.5452 34.3301 44.5452 33.8066C44.5452 33.3184 44.6292 32.8711 44.7972 32.4648C44.9652 32.0547 45.1937 31.7031 45.4827 31.4102C45.7757 31.1172 46.1155 30.8906 46.5023 30.7305C46.8929 30.5664 47.3089 30.4844 47.7503 30.4844C47.9534 30.4844 48.1546 30.5098 48.3538 30.5605C48.553 30.6113 48.7464 30.6816 48.9339 30.7715C49.1214 30.8613 49.2991 30.9668 49.4671 31.0879C49.639 31.209 49.7991 31.3398 49.9476 31.4805L50.5687 30.7363H50.9554V37ZM49.3441 33.8066C49.3441 33.5879 49.3011 33.377 49.2152 33.1738C49.1331 32.9668 49.0198 32.7852 48.8753 32.6289C48.7308 32.4688 48.5609 32.3418 48.3655 32.248C48.1741 32.1504 47.9691 32.1016 47.7503 32.1016C47.5316 32.1016 47.3245 32.1387 47.1292 32.2129C46.9378 32.2871 46.7698 32.3965 46.6253 32.541C46.4847 32.6855 46.3734 32.8652 46.2913 33.0801C46.2093 33.291 46.1683 33.5332 46.1683 33.8066C46.1683 34.0801 46.2093 34.3242 46.2913 34.5391C46.3734 34.75 46.4847 34.9277 46.6253 35.0723C46.7698 35.2168 46.9378 35.3262 47.1292 35.4004C47.3245 35.4746 47.5316 35.5117 47.7503 35.5117C47.9691 35.5117 48.1741 35.4648 48.3655 35.3711C48.5609 35.2734 48.7308 35.1465 48.8753 34.9902C49.0198 34.8301 49.1331 34.6484 49.2152 34.4453C49.3011 34.2383 49.3441 34.0254 49.3441 33.8066ZM57.1996 37H55.6V30.7246H55.9867L56.5141 31.334C56.7719 31.0996 57.0629 30.9199 57.3871 30.7949C57.7152 30.666 58.057 30.6016 58.4125 30.6016C58.7953 30.6016 59.1566 30.6758 59.4965 30.8242C59.8363 30.9688 60.1332 31.1699 60.3871 31.4277C60.641 31.6816 60.8402 31.9805 60.9848 32.3242C61.1332 32.6641 61.2074 33.0273 61.2074 33.4141V37H59.6078V33.4141C59.6078 33.25 59.5766 33.0957 59.5141 32.9512C59.4516 32.8027 59.3656 32.6738 59.2562 32.5645C59.1469 32.4551 59.0199 32.3691 58.8754 32.3066C58.7309 32.2441 58.5766 32.2129 58.4125 32.2129C58.2445 32.2129 58.0863 32.2441 57.9379 32.3066C57.7895 32.3691 57.6605 32.4551 57.5512 32.5645C57.4418 32.6738 57.3559 32.8027 57.2934 32.9512C57.2309 33.0957 57.1996 33.25 57.1996 33.4141V37ZM67.2348 39.3906V37.7793L68.1255 37.791C68.2817 37.791 68.4321 37.7656 68.5766 37.7148C68.7212 37.6641 68.854 37.5938 68.9751 37.5039C69.1001 37.4141 69.2095 37.3066 69.3032 37.1816C69.397 37.0605 69.4731 36.9277 69.5317 36.7832C69.3559 36.8574 69.1763 36.9316 68.9927 37.0059C68.813 37.0801 68.6313 37.1172 68.4477 37.1172C68.061 37.1172 67.6977 37.0488 67.3579 36.9121C67.0181 36.7754 66.7192 36.582 66.4614 36.332C66.2075 36.0781 66.0063 35.7715 65.8579 35.4121C65.7134 35.0488 65.6411 34.6426 65.6411 34.1934V30.7246H67.2348V34.1934C67.2348 34.416 67.2661 34.6113 67.3286 34.7793C67.395 34.9434 67.4829 35.082 67.5923 35.1953C67.7016 35.3047 67.8286 35.3867 67.9731 35.4414C68.1216 35.4961 68.2798 35.5234 68.4477 35.5234C68.6118 35.5234 68.7661 35.4863 68.9106 35.4121C69.0591 35.334 69.188 35.2324 69.2973 35.1074C69.4067 34.9824 69.4927 34.8418 69.5552 34.6855C69.6177 34.5254 69.6489 34.3613 69.6489 34.1934V30.7246H71.2602V36.209C71.2563 36.6504 71.1704 37.0645 71.0024 37.4512C70.8345 37.8379 70.604 38.1758 70.311 38.4648C70.022 38.7539 69.6841 38.9824 69.2973 39.1504C68.9106 39.3184 68.4966 39.4023 68.0552 39.4023L67.2348 39.3906Z" fill="white"/>
<path d="M0.894415 0.748443C2.08252 2.917 4.92271 3.36688 6.07009 5.30479L2.00625 10.3033L1.72119 8.68879C0.330342 6.67494 1.22019 2.59359 0.894415 0.748443Z" fill="url(#paint0_linear_9_17)"/>
<path d="M17.582 0.748443C16.3939 2.917 13.5537 3.36688 12.4063 5.30479L16.4701 10.3033L16.7552 8.68879C18.146 6.67494 17.2562 2.59359 17.582 0.748443Z" fill="url(#paint1_linear_9_17)"/>
<path d="M2.6452 7.50006L4.24585 6.07014L5.07098 5.25917L4.64201 5.558L4.71644 5.26997L3.81769 5.34497L4.10661 4.90753L3.88413 4.74762L4.15623 4.71552C4.21578 4.48509 2.80185 4.05824 2.08744 3.87362L2.42517 4.26816C2.22733 4.21703 1.58937 4.66669 1.29512 4.89791L1.88014 5.35636L1.5256 5.36715L2.3251 5.67619L1.92094 5.87901L2.49797 6.02812L2.12661 6.44426L2.50596 6.33745L2.25785 7.29754L2.82687 7.13733L2.6452 7.50006Z" fill="white"/>
<path d="M15.6865 7.50006L14.0859 6.07014L13.2607 5.25917L13.6897 5.558L13.6153 5.26997L14.514 5.34497L14.2251 4.90753L14.4476 4.74762L14.1755 4.71552C14.1159 4.48509 15.5299 4.05824 16.2443 3.87362L15.9066 4.26816C16.1044 4.21703 16.7424 4.66669 17.0366 4.89791L16.4516 5.35636L16.8061 5.36715L16.0066 5.67619L16.4108 5.87901L15.8338 6.02812L16.2051 6.44426L15.8258 6.33745L16.0739 7.29754L15.5049 7.13733L15.6865 7.50006Z" fill="white"/>
<path d="M13.334 16.3387V12.1389C13.334 11.5633 13.2218 11.0219 12.9974 10.5146C12.7828 9.99757 12.4853 9.54881 12.1048 9.16834C11.7243 8.78788 11.2756 8.49033 10.7585 8.27571C10.2512 8.05133 9.70979 7.93914 9.13421 7.93914C8.55863 7.93914 8.01232 8.05133 7.49527 8.27571C6.98798 8.49033 6.5441 8.78788 6.16363 9.16834C5.78316 9.54881 5.48074 9.99757 5.25636 10.5146C5.04173 11.0219 4.93442 11.5633 4.93442 12.1389V16.3387H13.334ZM17.5338 24.7237H13.334V20.5239H4.93442V24.7237H0.749268V12.1389C0.749268 10.978 0.968769 9.89026 1.40777 8.87568C1.84677 7.85134 2.44187 6.9587 3.19305 6.19776C3.95398 5.43682 4.84174 4.83686 5.85633 4.39785C6.88067 3.95885 7.97329 3.73935 9.13421 3.73935C10.2951 3.73935 11.3829 3.95885 12.3975 4.39785C13.4218 4.83686 14.3144 5.43682 15.0754 6.19776C15.8363 6.9587 16.4363 7.85134 16.8753 8.87568C17.3143 9.89026 17.5338 10.978 17.5338 12.1389V24.7237Z" fill="url(#paint2_linear_9_17)"/>
<path d="M23.3697 24.7734H19.8472V10.9544H20.6988L21.8601 12.2963C22.4278 11.7802 23.0686 11.3845 23.7826 11.1093C24.5052 10.8254 25.2578 10.6835 26.0406 10.6835C26.8836 10.6835 27.6792 10.8469 28.4276 11.1738C29.176 11.4921 29.8297 11.9351 30.3888 12.5028C30.948 13.0619 31.3867 13.72 31.7049 14.4769C32.0318 15.2253 32.1952 16.0253 32.1952 16.8768V24.7734H28.6728V16.8768C28.6728 16.5156 28.6039 16.1758 28.4663 15.8575C28.3287 15.5307 28.1394 15.2468 27.8986 15.0059C27.6577 14.7651 27.3782 14.5758 27.0599 14.4382C26.7416 14.3006 26.4019 14.2318 26.0406 14.2318C25.6707 14.2318 25.3223 14.3006 24.9955 14.4382C24.6686 14.5758 24.3847 14.7651 24.1439 15.0059C23.903 15.2468 23.7138 15.5307 23.5761 15.8575C23.4385 16.1758 23.3697 16.5156 23.3697 16.8768V24.7734Z" fill="url(#paint3_linear_9_17)"/>
<path d="M38.866 7.19972C38.866 7.5266 38.8015 7.83196 38.6725 8.11583C38.552 8.39969 38.3843 8.64914 38.1692 8.86419C37.9542 9.07064 37.7004 9.23837 37.408 9.3674C37.1241 9.48783 36.8188 9.54804 36.4919 9.54804C36.165 9.54804 35.8553 9.48783 35.5629 9.3674C35.279 9.23837 35.0296 9.07064 34.8145 8.86419C34.6081 8.64914 34.4403 8.39969 34.3113 8.11583C34.1909 7.83196 34.1307 7.5266 34.1307 7.19972C34.1307 6.88146 34.1909 6.58039 34.3113 6.29653C34.4403 6.00406 34.6081 5.75461 34.8145 5.54816C35.0296 5.33312 35.279 5.16538 35.5629 5.04495C35.8553 4.91592 36.165 4.85141 36.4919 4.85141C36.8188 4.85141 37.1241 4.91592 37.408 5.04495C37.7004 5.16538 37.9542 5.33312 38.1692 5.54816C38.3843 5.75461 38.552 6.00406 38.6725 6.29653C38.8015 6.58039 38.866 6.88146 38.866 7.19972ZM38.2596 24.7734H34.7113V10.9544H38.2596V24.7734Z" fill="url(#paint4_linear_9_17)"/>
<path d="M58.5299 24.7734H55.0203V15.9995C55.0203 15.7586 54.973 15.5307 54.8784 15.3156C54.7924 15.1006 54.6677 14.9113 54.5042 14.7479C54.3408 14.5844 54.1516 14.4597 53.9365 14.3737C53.7215 14.2791 53.4935 14.2318 53.2527 14.2318C53.0118 14.2318 52.7839 14.2791 52.5688 14.3737C52.3624 14.4597 52.1774 14.5844 52.014 14.7479C51.8591 14.9113 51.7344 15.1006 51.6398 15.3156C51.5538 15.5307 51.5108 15.7586 51.5108 15.9995V24.7734H47.9883V15.9995C47.9883 15.7586 47.941 15.5307 47.8464 15.3156C47.7603 15.1006 47.6356 14.9113 47.4722 14.7479C47.3088 14.5844 47.1195 14.4597 46.9045 14.3737C46.6894 14.2791 46.4615 14.2318 46.2206 14.2318C45.9798 14.2318 45.7518 14.2791 45.5368 14.3737C45.3303 14.4597 45.1454 14.5844 44.9819 14.7479C44.8271 14.9113 44.7024 15.1006 44.6078 15.3156C44.5217 15.5307 44.4787 15.7586 44.4787 15.9995V24.7734H40.9563V10.9544H41.8078L42.7627 12.0125C43.253 11.5996 43.7906 11.2813 44.3755 11.0577C44.969 10.8254 45.5841 10.7093 46.2206 10.7093C46.8658 10.7093 47.4937 10.8297 48.1044 11.0706C48.7238 11.3114 49.2657 11.7286 49.7302 12.3221C49.9452 12.0297 50.1904 11.7802 50.4656 11.5738C50.7409 11.3673 51.0291 11.1996 51.3301 11.0706C51.6398 10.9415 51.9581 10.8512 52.2849 10.7996C52.6118 10.7394 52.9344 10.7093 53.2527 10.7093C53.9838 10.7093 54.6677 10.8469 55.3042 11.1222C55.9493 11.3974 56.5085 11.7759 56.9816 12.2576C57.4633 12.7307 57.8418 13.2899 58.117 13.935C58.3923 14.5801 58.5299 15.2683 58.5299 15.9995V24.7734Z" fill="url(#paint5_linear_9_17)"/>
<path d="M66.6071 21.3928C66.7447 21.4358 66.8823 21.466 67.02 21.4832C67.1576 21.4918 67.2952 21.4961 67.4329 21.4961C67.7769 21.4961 68.1081 21.4487 68.4264 21.3541C68.7447 21.2595 69.0414 21.1262 69.3167 20.9541C69.6005 20.7735 69.85 20.5585 70.065 20.309C70.2887 20.0509 70.4693 19.7671 70.607 19.4574L73.1875 22.0509C72.8607 22.5154 72.4822 22.9326 72.0521 23.3025C71.6306 23.6723 71.1704 23.9863 70.6715 24.2444C70.1812 24.5024 69.6608 24.696 69.1102 24.825C68.5683 24.9626 68.0092 25.0314 67.4329 25.0314C66.4608 25.0314 65.5448 24.8508 64.6846 24.4895C63.833 24.1282 63.0846 23.625 62.4395 22.9799C61.8029 22.3347 61.2997 21.5692 60.9298 20.6832C60.56 19.7886 60.375 18.808 60.375 17.7413C60.375 16.6489 60.56 15.6511 60.9298 14.7479C61.2997 13.8447 61.8029 13.0748 62.4395 12.4383C63.0846 11.8017 63.833 11.3071 64.6846 10.9544C65.5448 10.6018 66.4608 10.4254 67.4329 10.4254C68.0092 10.4254 68.5726 10.4942 69.1231 10.6319C69.6737 10.7695 70.1941 10.9674 70.6844 11.2254C71.1833 11.4835 71.6478 11.8017 72.0779 12.1802C72.508 12.5501 72.8865 12.9673 73.2133 13.4318L66.6071 21.3928ZM68.4135 14.1285C68.25 14.0683 68.0866 14.0296 67.9232 14.0124C67.7683 13.9952 67.6049 13.9866 67.4329 13.9866C66.9512 13.9866 66.4953 14.0769 66.0652 14.2576C65.6437 14.4296 65.2738 14.6791 64.9555 15.0059C64.6459 15.3328 64.4007 15.7285 64.2201 16.193C64.0394 16.6489 63.9491 17.165 63.9491 17.7413C63.9491 17.8704 63.9534 18.0166 63.962 18.18C63.9792 18.3435 64.0007 18.5112 64.0265 18.6832C64.0609 18.8467 64.0996 19.0058 64.1426 19.1606C64.1856 19.3155 64.2416 19.4531 64.3104 19.5735L68.4135 14.1285Z" fill="url(#paint6_linear_9_17)"/>
<defs>
<linearGradient id="paint0_linear_9_17" x1="5.22311" y1="15.6982" x2="2.35706" y2="-0.534635" gradientUnits="userSpaceOnUse">
<stop stop-color="#FFD585"/>
<stop offset="1" stop-color="#F4893B"/>
</linearGradient>
<linearGradient id="paint1_linear_9_17" x1="13.2533" y1="15.6982" x2="16.1193" y2="-0.534635" gradientUnits="userSpaceOnUse">
<stop stop-color="#FFD585"/>
<stop offset="1" stop-color="#F4893B"/>
</linearGradient>
<linearGradient id="paint2_linear_9_17" x1="9.25342" y1="37.5557" x2="9.25342" y2="1.53392" gradientUnits="userSpaceOnUse">
<stop stop-color="#FFD585"/>
<stop offset="1" stop-color="#F4893B"/>
</linearGradient>
<linearGradient id="paint3_linear_9_17" x1="46.8861" y1="37.3717" x2="46.8861" y2="2.73051" gradientUnits="userSpaceOnUse">
<stop stop-color="#FFD585"/>
<stop offset="1" stop-color="#F4893B"/>
</linearGradient>
<linearGradient id="paint4_linear_9_17" x1="46.8861" y1="37.3717" x2="46.8861" y2="2.73051" gradientUnits="userSpaceOnUse">
<stop stop-color="#FFD585"/>
<stop offset="1" stop-color="#F4893B"/>
</linearGradient>
<linearGradient id="paint5_linear_9_17" x1="46.8861" y1="37.3717" x2="46.8861" y2="2.73051" gradientUnits="userSpaceOnUse">
<stop stop-color="#FFD585"/>
<stop offset="1" stop-color="#F4893B"/>
</linearGradient>
<linearGradient id="paint6_linear_9_17" x1="46.8861" y1="37.3717" x2="46.8861" y2="2.73051" gradientUnits="userSpaceOnUse">
<stop stop-color="#FFD585"/>
<stop offset="1" stop-color="#F4893B"/>
</linearGradient>
</defs>
</svg>
